# xmcd
#
# Track frame offsets:
#	150
#	19182
#	38275
#	55862
#	69332
#	84907
#	101977
#	118805
#	130022
#	146160
#	157860
#	173890
#	185422
#	198747
#	213610
#	240665
#
# Disc length: 3221 seconds
#
# Revision: 1
# Processed by: cddbd v1.5.1PL2 Copyright (c) Steve Scherf et al.
# Submitted via: audiograbber 1.83.01
#
DISCID=dd0c9310
DTITLE=Sound Choice - SC8114
DYEAR=1900
DGENRE=
TTITLE0=Williams, Hank Jr - All My Rowdy Friends Have Settled Down
TTITLE1=Williams, Hank Jr - Family Tradition
TTITLE2=Cash, Johnny - A Boy Named Sue
TTITLE3=McDaniel, Mel - Stand Up
TTITLE4=Forester Sisters - Men
TTITLE5=Morgan, Lorrie - My Night To Howl
TTITLE6=Berry, John - Kiss Me In The Car
TTITLE7=Miller, Ned - From A Jack To A King
TTITLE8=Riley, Jeannie C - Harper Valley PTA
TTITLE9=McClain, Charley - Who's Cheatin Who
TTITLE10=Davis, Linda - Company Time
TTITLE11=Craddock, Billy Crash - Rub It In
TTITLE12=Stafford, Jim - Wildwood Weed
TTITLE13=Cash, Roseanne - Tennessee Flat Top Box
TTITLE14=Newton, Juice - Love's Been A Little Bit Hard On Me
TTITLE15=x - Data Track
EXTD=
EXTT0=
EXTT1=
EXTT2=
EXTT3=
EXTT4=
EXTT5=
EXTT6=
EXTT7=
EXTT8=
EXTT9=
EXTT10=
EXTT11=
EXTT12=
EXTT13=
EXTT14=
EXTT15=
PLAYORDER=
